<?xml version="1.0" encoding="UTF-8" standalone="no"?>
<!DOCTYPE svg PUBLIC "-//W3C//DTD SVG 1.1//EN"
 "http://www.w3.org/Graphics/SVG/1.1/DTD/svg11.dtd">
<!-- Generated by graphviz version 2.26.3 (20100126.1600)
 -->
<!-- Title: tree Pages: 1 -->
<svg width="224pt" height="260pt"
 viewBox="0.00 0.00 224.00 260.00" xmlns="http://www.w3.org/2000/svg" xmlns:xlink="http://www.w3.org/1999/xlink">
<g id="graph1" class="graph" transform="scale(1 1) rotate(0) translate(4 256)">
<title>tree</title>
<polygon fill="white" stroke="white" points="-4,5 -4,-256 221,-256 221,5 -4,5"/>
<!-- aad -->
<g id="node1" class="node"><title>aad</title>
<text text-anchor="middle" x="27" y="-13.9" font-family="Times Roman,serif" font-size="14.00">The</text>
</g>
<!-- aac -->
<g id="node2" class="node"><title>aac</title>
<text text-anchor="middle" x="27" y="-85.9" font-family="Times Roman,serif" font-size="14.00">Det</text>
</g>
<!-- aac&#45;&#45;aad -->
<g id="edge2" class="edge"><title>aac&#45;&#45;aad</title>
<path fill="none" stroke="black" d="M27,-71.8314C27,-61 27,-47.2876 27,-36.4133"/>
</g>
<!-- aab -->
<g id="node4" class="node"><title>aab</title>
<text text-anchor="middle" x="99" y="-157.9" font-family="Times Roman,serif" font-size="14.00">NP</text>
</g>
<!-- aab&#45;&#45;aac -->
<g id="edge4" class="edge"><title>aab&#45;&#45;aac</title>
<path fill="none" stroke="black" d="M80.8314,-143.831C70,-133 56.2876,-119.288 45.4133,-108.413"/>
</g>
<!-- aae -->
<g id="node7" class="node"><title>aae</title>
<text text-anchor="middle" x="99" y="-85.9" font-family="Times Roman,serif" font-size="14.00">N</text>
</g>
<!-- aab&#45;&#45;aae -->
<g id="edge8" class="edge"><title>aab&#45;&#45;aae</title>
<path fill="none" stroke="black" d="M99,-143.831C99,-133 99,-119.288 99,-108.413"/>
</g>
<!-- aaf -->
<g id="node6" class="node"><title>aaf</title>
<text text-anchor="middle" x="99" y="-13.9" font-family="Times Roman,serif" font-size="14.00">ice</text>
</g>
<!-- aae&#45;&#45;aaf -->
<g id="edge6" class="edge"><title>aae&#45;&#45;aaf</title>
<path fill="none" stroke="black" d="M99,-71.8314C99,-61 99,-47.2876 99,-36.4133"/>
</g>
<!-- aaa -->
<g id="node10" class="node"><title>aaa</title>
<text text-anchor="middle" x="136" y="-229.9" font-family="Times Roman,serif" font-size="14.00">S</text>
</g>
<!-- aaa&#45;&#45;aab -->
<g id="edge10" class="edge"><title>aaa&#45;&#45;aab</title>
<path fill="none" stroke="black" d="M126.663,-215.831C121.097,-205 114.051,-191.288 108.462,-180.413"/>
</g>
<!-- aag -->
<g id="node15" class="node"><title>aag</title>
<text text-anchor="middle" x="173" y="-157.9" font-family="Times Roman,serif" font-size="14.00">VP</text>
</g>
<!-- aaa&#45;&#45;aag -->
<g id="edge16" class="edge"><title>aaa&#45;&#45;aag</title>
<path fill="none" stroke="black" d="M145.337,-215.831C150.903,-205 157.949,-191.288 163.538,-180.413"/>
</g>
<!-- aai -->
<g id="node12" class="node"><title>aai</title>
<text text-anchor="middle" x="180" y="-13.9" font-family="Times Roman,serif" font-size="14.00">melted.</text>
</g>
<!-- aah -->
<g id="node13" class="node"><title>aah</title>
<text text-anchor="middle" x="177" y="-85.9" font-family="Times Roman,serif" font-size="14.00">V</text>
</g>
<!-- aah&#45;&#45;aai -->
<g id="edge12" class="edge"><title>aah&#45;&#45;aai</title>
<path fill="none" stroke="black" d="M177.757,-71.8314C178.208,-61 178.78,-47.2876 179.233,-36.4133"/>
</g>
<!-- aag&#45;&#45;aah -->
<g id="edge14" class="edge"><title>aag&#45;&#45;aah</title>
<path fill="none" stroke="black" d="M174.009,-143.831C174.611,-133 175.373,-119.288 175.977,-108.413"/>
</g>
</g>
</svg>
