<?xml version="1.0" encoding="UTF-8" standalone="no"?>
<!DOCTYPE svg PUBLIC "-//W3C//DTD SVG 1.1//EN"
 "http://www.w3.org/Graphics/SVG/1.1/DTD/svg11.dtd">
<!-- Generated by graphviz version 2.26.3 (20100126.1600)
 -->
<!-- Title: tree Pages: 1 -->
<svg width="734pt" height="548pt"
 viewBox="0.00 0.00 734.00 548.00" xmlns="http://www.w3.org/2000/svg" xmlns:xlink="http://www.w3.org/1999/xlink">
<g id="graph1" class="graph" transform="scale(1 1) rotate(0) translate(4 544)">
<title>tree</title>
<polygon fill="white" stroke="white" points="-4,5 -4,-544 731,-544 731,5 -4,5"/>
<!-- aab -->
<g id="node1" class="node"><title>aab</title>
<text text-anchor="middle" x="34" y="-445.9" font-family="Times Roman,serif" font-size="14.00">graph1</text>
</g>
<!-- aaa -->
<g id="node2" class="node"><title>aaa</title>
<text text-anchor="middle" x="115" y="-517.9" font-family="Times Roman,serif" font-size="14.00">program</text>
</g>
<!-- aaa&#45;&#45;aab -->
<g id="edge2" class="edge"><title>aaa&#45;&#45;aab</title>
<path fill="none" stroke="black" d="M94.5603,-503.831C82.2813,-492.917 66.711,-479.076 54.4332,-468.163"/>
</g>
<!-- aac -->
<g id="node5" class="node"><title>aac</title>
<text text-anchor="middle" x="115" y="-445.9" font-family="Times Roman,serif" font-size="14.00">progn</text>
</g>
<!-- aaa&#45;&#45;aac -->
<g id="edge6" class="edge"><title>aaa&#45;&#45;aac</title>
<path fill="none" stroke="black" d="M115,-503.831C115,-493 115,-479.288 115,-468.413"/>
</g>
<!-- aae -->
<g id="node13" class="node"><title>aae</title>
<text text-anchor="middle" x="191" y="-445.9" font-family="Times Roman,serif" font-size="14.00">progn</text>
</g>
<!-- aaa&#45;&#45;aae -->
<g id="edge56" class="edge"><title>aaa&#45;&#45;aae</title>
<path fill="none" stroke="black" d="M134.178,-503.831C145.699,-492.917 160.308,-479.076 171.828,-468.163"/>
</g>
<!-- aad -->
<g id="node4" class="node"><title>aad</title>
<text text-anchor="middle" x="114" y="-373.9" font-family="Times Roman,serif" font-size="14.00">output</text>
</g>
<!-- aac&#45;&#45;aad -->
<g id="edge4" class="edge"><title>aac&#45;&#45;aad</title>
<path fill="none" stroke="black" d="M114.748,-431.831C114.597,-421 114.407,-407.288 114.256,-396.413"/>
</g>
<!-- aag -->
<g id="node8" class="node"><title>aag</title>
<text text-anchor="middle" x="119" y="-301.9" font-family="Times Roman,serif" font-size="14.00">lim</text>
</g>
<!-- aaf -->
<g id="node9" class="node"><title>aaf</title>
<text text-anchor="middle" x="191" y="-373.9" font-family="Times Roman,serif" font-size="14.00">:=</text>
</g>
<!-- aaf&#45;&#45;aag -->
<g id="edge8" class="edge"><title>aaf&#45;&#45;aag</title>
<path fill="none" stroke="black" d="M172.831,-359.831C162,-349 148.288,-335.288 137.413,-324.413"/>
</g>
<!-- aah -->
<g id="node11" class="node"><title>aah</title>
<text text-anchor="middle" x="191" y="-301.9" font-family="Times Roman,serif" font-size="14.00">7</text>
</g>
<!-- aaf&#45;&#45;aah -->
<g id="edge10" class="edge"><title>aaf&#45;&#45;aah</title>
<path fill="none" stroke="black" d="M191,-359.831C191,-349 191,-335.288 191,-324.413"/>
</g>
<!-- aae&#45;&#45;aaf -->
<g id="edge12" class="edge"><title>aae&#45;&#45;aaf</title>
<path fill="none" stroke="black" d="M191,-431.831C191,-421 191,-407.288 191,-396.413"/>
</g>
<!-- aai -->
<g id="node20" class="node"><title>aai</title>
<text text-anchor="middle" x="300" y="-373.9" font-family="Times Roman,serif" font-size="14.00">progn</text>
</g>
<!-- aae&#45;&#45;aai -->
<g id="edge54" class="edge"><title>aae&#45;&#45;aai</title>
<path fill="none" stroke="black" d="M218.505,-431.831C235.029,-420.917 255.981,-407.076 272.503,-396.163"/>
</g>
<!-- aak -->
<g id="node15" class="node"><title>aak</title>
<text text-anchor="middle" x="191" y="-229.9" font-family="Times Roman,serif" font-size="14.00">i</text>
</g>
<!-- aaj -->
<g id="node16" class="node"><title>aaj</title>
<text text-anchor="middle" x="263" y="-301.9" font-family="Times Roman,serif" font-size="14.00">:=</text>
</g>
<!-- aaj&#45;&#45;aak -->
<g id="edge14" class="edge"><title>aaj&#45;&#45;aak</title>
<path fill="none" stroke="black" d="M244.831,-287.831C234,-277 220.288,-263.288 209.413,-252.413"/>
</g>
<!-- aal -->
<g id="node18" class="node"><title>aal</title>
<text text-anchor="middle" x="263" y="-229.9" font-family="Times Roman,serif" font-size="14.00">0</text>
</g>
<!-- aaj&#45;&#45;aal -->
<g id="edge16" class="edge"><title>aaj&#45;&#45;aal</title>
<path fill="none" stroke="black" d="M263,-287.831C263,-277 263,-263.288 263,-252.413"/>
</g>
<!-- aai&#45;&#45;aaj -->
<g id="edge18" class="edge"><title>aai&#45;&#45;aaj</title>
<path fill="none" stroke="black" d="M290.663,-359.831C285.097,-349 278.051,-335.288 272.462,-324.413"/>
</g>
<!-- aam -->
<g id="node23" class="node"><title>aam</title>
<text text-anchor="middle" x="335" y="-301.9" font-family="Times Roman,serif" font-size="14.00">label</text>
</g>
<!-- aai&#45;&#45;aam -->
<g id="edge22" class="edge"><title>aai&#45;&#45;aam</title>
<path fill="none" stroke="black" d="M308.832,-359.831C314.097,-349 320.763,-335.288 326.049,-324.413"/>
</g>
<!-- aao -->
<g id="node31" class="node"><title>aao</title>
<text text-anchor="middle" x="407" y="-301.9" font-family="Times Roman,serif" font-size="14.00">if</text>
</g>
<!-- aai&#45;&#45;aao -->
<g id="edge52" class="edge"><title>aai&#45;&#45;aao</title>
<path fill="none" stroke="black" d="M327.001,-359.831C343.221,-348.917 363.789,-335.076 380.008,-324.163"/>
</g>
<!-- aan -->
<g id="node22" class="node"><title>aan</title>
<text text-anchor="middle" x="335" y="-229.9" font-family="Times Roman,serif" font-size="14.00">0</text>
</g>
<!-- aam&#45;&#45;aan -->
<g id="edge20" class="edge"><title>aam&#45;&#45;aan</title>
<path fill="none" stroke="black" d="M335,-287.831C335,-277 335,-263.288 335,-252.413"/>
</g>
<!-- aaq -->
<g id="node26" class="node"><title>aaq</title>
<text text-anchor="middle" x="335" y="-157.9" font-family="Times Roman,serif" font-size="14.00">i</text>
</g>
<!-- aap -->
<g id="node27" class="node"><title>aap</title>
<text text-anchor="middle" x="407" y="-229.9" font-family="Times Roman,serif" font-size="14.00">&lt;=</text>
</g>
<!-- aap&#45;&#45;aaq -->
<g id="edge24" class="edge"><title>aap&#45;&#45;aaq</title>
<path fill="none" stroke="black" d="M388.831,-215.831C378,-205 364.288,-191.288 353.413,-180.413"/>
</g>
<!-- aar -->
<g id="node29" class="node"><title>aar</title>
<text text-anchor="middle" x="407" y="-157.9" font-family="Times Roman,serif" font-size="14.00">lim</text>
</g>
<!-- aap&#45;&#45;aar -->
<g id="edge26" class="edge"><title>aap&#45;&#45;aar</title>
<path fill="none" stroke="black" d="M407,-215.831C407,-205 407,-191.288 407,-180.413"/>
</g>
<!-- aao&#45;&#45;aap -->
<g id="edge28" class="edge"><title>aao&#45;&#45;aap</title>
<path fill="none" stroke="black" d="M407,-287.831C407,-277 407,-263.288 407,-252.413"/>
</g>
<!-- aas -->
<g id="node38" class="node"><title>aas</title>
<text text-anchor="middle" x="521" y="-229.9" font-family="Times Roman,serif" font-size="14.00">progn</text>
</g>
<!-- aao&#45;&#45;aas -->
<g id="edge50" class="edge"><title>aao&#45;&#45;aas</title>
<path fill="none" stroke="black" d="M434.016,-288.937C451.531,-277.875 474.324,-263.479 492.185,-252.199"/>
</g>
<!-- aau -->
<g id="node33" class="node"><title>aau</title>
<text text-anchor="middle" x="405" y="-85.9" font-family="Times Roman,serif" font-size="14.00">writeln</text>
</g>
<!-- aat -->
<g id="node34" class="node"><title>aat</title>
<text text-anchor="middle" x="483" y="-157.9" font-family="Times Roman,serif" font-size="14.00">funcall</text>
</g>
<!-- aat&#45;&#45;aau -->
<g id="edge30" class="edge"><title>aat&#45;&#45;aau</title>
<path fill="none" stroke="black" d="M463.317,-143.831C451.493,-132.917 436.499,-119.076 424.676,-108.163"/>
</g>
<!-- aav -->
<g id="node36" class="node"><title>aav</title>
<text text-anchor="middle" x="483" y="-85.9" font-family="Times Roman,serif" font-size="14.00">&#39;*&#39;</text>
</g>
<!-- aat&#45;&#45;aav -->
<g id="edge32" class="edge"><title>aat&#45;&#45;aav</title>
<path fill="none" stroke="black" d="M483,-143.831C483,-133 483,-119.288 483,-108.413"/>
</g>
<!-- aas&#45;&#45;aat -->
<g id="edge34" class="edge"><title>aas&#45;&#45;aat</title>
<path fill="none" stroke="black" d="M511.411,-215.831C505.694,-205 498.457,-191.288 492.718,-180.413"/>
</g>
<!-- aaw -->
<g id="node41" class="node"><title>aaw</title>
<text text-anchor="middle" x="559" y="-157.9" font-family="Times Roman,serif" font-size="14.00">:=</text>
</g>
<!-- aas&#45;&#45;aaw -->
<g id="edge44" class="edge"><title>aas&#45;&#45;aaw</title>
<path fill="none" stroke="black" d="M530.589,-215.831C536.306,-205 543.543,-191.288 549.282,-180.413"/>
</g>
<!-- abb -->
<g id="node51" class="node"><title>abb</title>
<text text-anchor="middle" x="665" y="-157.9" font-family="Times Roman,serif" font-size="14.00">goto</text>
</g>
<!-- aas&#45;&#45;abb -->
<g id="edge48" class="edge"><title>aas&#45;&#45;abb</title>
<path fill="none" stroke="black" d="M550.141,-219.43C575.781,-206.609 612.824,-188.088 637.851,-175.574"/>
</g>
<!-- aax -->
<g id="node40" class="node"><title>aax</title>
<text text-anchor="middle" x="555" y="-85.9" font-family="Times Roman,serif" font-size="14.00">i</text>
</g>
<!-- aaw&#45;&#45;aax -->
<g id="edge36" class="edge"><title>aaw&#45;&#45;aax</title>
<path fill="none" stroke="black" d="M557.991,-143.831C557.389,-133 556.627,-119.288 556.023,-108.413"/>
</g>
<!-- aay -->
<g id="node44" class="node"><title>aay</title>
<text text-anchor="middle" x="627" y="-85.9" font-family="Times Roman,serif" font-size="14.00">+</text>
</g>
<!-- aaw&#45;&#45;aay -->
<g id="edge42" class="edge"><title>aaw&#45;&#45;aay</title>
<path fill="none" stroke="black" d="M576.159,-143.831C586.389,-133 599.34,-119.288 609.61,-108.413"/>
</g>
<!-- aaz -->
<g id="node43" class="node"><title>aaz</title>
<text text-anchor="middle" x="591" y="-13.9" font-family="Times Roman,serif" font-size="14.00">i</text>
</g>
<!-- aay&#45;&#45;aaz -->
<g id="edge38" class="edge"><title>aay&#45;&#45;aaz</title>
<path fill="none" stroke="black" d="M617.916,-71.8314C612.5,-61 605.644,-47.2876 600.207,-36.4133"/>
</g>
<!-- aba -->
<g id="node46" class="node"><title>aba</title>
<text text-anchor="middle" x="663" y="-13.9" font-family="Times Roman,serif" font-size="14.00">1</text>
</g>
<!-- aay&#45;&#45;aba -->
<g id="edge40" class="edge"><title>aay&#45;&#45;aba</title>
<path fill="none" stroke="black" d="M636.084,-71.8314C641.5,-61 648.356,-47.2876 653.793,-36.4133"/>
</g>
<!-- abc -->
<g id="node50" class="node"><title>abc</title>
<text text-anchor="middle" x="699" y="-85.9" font-family="Times Roman,serif" font-size="14.00">0</text>
</g>
<!-- abb&#45;&#45;abc -->
<g id="edge46" class="edge"><title>abb&#45;&#45;abc</title>
<path fill="none" stroke="black" d="M673.58,-143.831C678.694,-133 685.17,-119.288 690.305,-108.413"/>
</g>
</g>
</svg>
